<?xml version="1.0" encoding="utf-8"?>
<!-- Generator: Adobe Illustrator 17.1.0, SVG Export Plug-In . SVG Version: 6.00 Build 0)  -->
<!DOCTYPE svg PUBLIC "-//W3C//DTD SVG 1.1//EN" "http://www.w3.org/Graphics/SVG/1.1/DTD/svg11.dtd">
<svg version="1.1" id="Layer_1" xmlns="http://www.w3.org/2000/svg" xmlns:xlink="http://www.w3.org/1999/xlink" x="0px" y="0px"
	 viewBox="0 320.9 612 150.1" enable-background="new 0 320.9 612 150.1" xml:space="preserve">
<path fill="#010101" d="M82.2,369.8c0,0,9.6,8.6,20.2,3.6c0,0,61.5-55.7,86-48.9c0,0,2.6,0.5,5.6-0.6c0,0,4.8-4,7-2.8
	c0,0,2,1.4,2.3,5.8c0,0.3,0,0.5,0,0.8c0,0,5.6-4,10-3.6c0,0,5-4,7.6-1.2c0,0-10.2,10.8-8.4,14.6l3.2,5.6c0,0-3.6,8.6-2.2,9.6
	c1.4,1,10,12.2,10,12.2s0.4,2.8-3.2,3.2c0,0-1.8,1.8-2.6,1.2c0,0-2.4,3.8-13.2-1.6c0,0-12.6-3.6-21.8,8.4l-0.8,1
	c0,0,6.4,0.2,8.2,5.6l6.4,11.2c0,0-2.2,6.8-1.6,7.6c0.6,0.8-3.6,7-6.4,5.6c0,0-1.4-2.4-2.8-2.8c-1.4-0.4,1.4,0.4,1.4,0.4
	s-6.6-4.6-4.8-6c0,0,1.2-4.2,0.4-5.6c0,0-1-2.2-0.9-3.6c0-0.5,0.2-0.8,0.5-1c1.4-0.6-3.6,0.2-4.2,2.2c0,0-9,5.2-12,2.4
	c0,0,8.8,6.4,8.6,9.8c0,0-1.8,11.4,0.2,12.2c0,0-1.8,12.8-12.2,13.8c0,0-1-1.6-0.4-3c0,0-3.6-7,1.6-8.4c0,0,2-0.2,1.8-2
	c0,0-2.6-1.8-0.6-7c0,0,0.4-3-5-3.6c0,0-14.8-5.8-14.2-7.6c0.6-1.8-49.3,17.8-57.3,27.9c0,0-2,0.8-3.2,1c-1.2,0.2-9.8,8.8-16.8,11.4
	c0,0-20.8,11.8-20.4,20.6c0,0-2.2,9.6-1.8,12.8c0,0-5.8,2-8.6-5.4c0,0,2.4-5,1.4-6.4c0,0-1.4-3.8,0.4-4.6c0,0,12-22.2,21.6-23.5
	c0,0,3.7-4.8,2.2-7.2c0,0-12,3-16.3,1.2c0,0-15.4,0.6-18.3,4.8c0,0-12.3,13.4-11.9,18.6c0,0.2,0.1,0.4,0.1,0.6c0,0,0,9.1-2.5,10.2
	c-2.5,1-6.3-3.7-5.4-6.4c0,0,0.6-3-0.1-3.3c0,0-0.7-6.1,0-7.5c0,0,13.8-17.2,14.4-18.9c0,0,1.6-4.2,3.3-3.6c0,0,1.2-2.7,6-1.8
	c0,0,5.7-1.2,7-3.1c0,0,12.3-20.7,18.6-22.2c6.3-1.5-16.5-4.5-17.7-3.4s-6.4,0-7,4.5c0,0-1-2.7,0.6-4.5c0,0-9.9,7.9-21,5.5
	c0,0,4.3-0.3,5.5-1.9c1.2-1.6-8.7,3.6-14.2-2.5c0,0,5.2,0.4,6.4-1.9c0,0-11.4,0.9-11.1-5.5c0,0,3.9,3,7.2,1.2c0,0-3.9,0-3.6-1.5
	c0,0,3.4,0.3,4.5-0.6C9.1,380.6,47.5,342.6,82.2,369.8z"/>
<path fill="#010101" d="M432.1,394.4c0,0,4.9,4.4,10.3,1.8c0,0,31.6-28.6,44.2-25.1c0,0,1.3,0.2,2.9-0.3c0,0,2.5-2.1,3.6-1.4
	c0,0,1,0.7,1.2,3c0,0.1,0,0.3,0,0.4c0,0,2.9-2,5.1-1.8c0,0,2.6-2,3.9-0.6c0,0-5.2,5.5-4.3,7.5l1.6,2.9c0,0-1.8,4.4-1.1,4.9
	c0.7,0.5,5.1,6.3,5.1,6.3s0.2,1.4-1.6,1.6c0,0-0.9,0.9-1.3,0.6c0,0-1.2,1.9-6.8-0.8c0,0-6.5-1.8-11.2,4.3l-0.4,0.5
	c0,0,3.3,0.1,4.2,2.9l3.3,5.7c0,0-1.1,3.5-0.8,3.9c0.3,0.4-1.8,3.6-3.3,2.9c0,0-0.7-1.2-1.4-1.4c-0.7-0.2,0.7,0.2,0.7,0.2
	s-3.4-2.4-2.5-3.1c0,0,0.6-2.2,0.2-2.9c0,0-0.5-1.1-0.5-1.8c0-0.2,0.1-0.4,0.3-0.5c0.7-0.3-1.8,0.1-2.2,1.1c0,0-4.6,2.7-6.1,1.2
	c0,0,4.5,3.3,4.4,5c0,0-0.9,5.8,0.1,6.3c0,0-0.9,6.6-6.3,7.1c0,0-0.5-0.8-0.2-1.5c0,0-1.8-3.6,0.8-4.3c0,0,1-0.1,0.9-1
	c0,0-1.3-0.9-0.3-3.6c0,0,0.2-1.5-2.6-1.8c0,0-7.6-3-7.3-3.9c0.3-0.9-25.3,9.1-29.4,14.3c0,0-1,0.4-1.6,0.5c-0.6,0.1-5,4.5-8.6,5.8
	c0,0-10.7,6-10.5,10.6c0,0-1.1,4.9-0.9,6.6c0,0-3,1-4.4-2.8c0,0,1.2-2.6,0.7-3.3c0,0-0.7-1.9,0.2-2.4c0,0,6.1-11.4,11.1-12.1
	c0,0,1.9-2.5,1.1-3.7c0,0-6.1,1.5-8.4,0.6c0,0-7.9,0.3-9.4,2.5c0,0-6.3,6.9-6.1,9.5c0,0.1,0,0.2,0.1,0.3c0,0,0,4.7-1.3,5.2
	c-1.3,0.5-3.2-1.9-2.8-3.3c0,0,0.3-1.5-0.1-1.7c0,0-0.4-3.2,0-3.8c0,0,7.1-8.8,7.4-9.7c0,0,0.8-2.2,1.7-1.8c0,0,0.6-1.4,3.1-0.9
	c0,0,2.9-0.6,3.6-1.6c0,0,6.3-10.6,9.5-11.4c3.2-0.8-8.5-2.3-9.1-1.8c-0.6,0.5-3.3,0-3.6,2.3c0,0-0.5-1.4,0.3-2.3
	c0,0-5.1,4.1-10.8,2.8c0,0,2.2-0.2,2.8-1c0.6-0.8-4.5,1.8-7.3-1.3c0,0,2.7,0.2,3.3-1c0,0-5.8,0.5-5.7-2.8c0,0,2,1.5,3.7,0.6
	c0,0-2,0-1.8-0.8c0,0,1.8,0.2,2.3-0.3C394.6,399.9,414.2,380.4,432.1,394.4z"/>
<path fill="#010101" d="M290.3,370.5c0,0,9-22.3,43.8-17c0,0,18.8,10,23.3,16.5c0.1,0.2,0.2,0.3,0.3,0.5c0,0,5.3,0.5,5.3-3
	c0,0-8.5-5.2,1.3-6.8c0,0,10.2-0.8,10.7-3c0,0-1-10.8,7-5c0,0,6.3,5.8,7,5.2c0,0,11.7,6,12.5,5.8c0,0,1.5,4.3,1.2,5.2l11.5,5
	c0,0,0.7,3.7-3.8,5.8c0,0,2,5.3-3,5c0,0-10-0.2-11.3,0.8c0,0-18.6,9.6-22.3,13.5c0,0-4.3,4.6-12.5,8.6c0,0-18,11.5-18.3,12.7
	c0,0-3.8,2.8,13,1c0,0,8.3-2.8,8.7,0.6c0,0,2.5,6-5,5.5c0,0-20,2.4-23,0c0,0-13,11.1-12.5,12.6c0.5,1.5-3.7,8.2-7.7,9.8
	c0,0-9.8,1.7-3.3-9.8c0,0,16.2-21.8,17.3-22.1c1.2-0.3-1.2,0.3-1.2,0.3s1.5-8-1.7-8.8c0,0-3.5-4.5-2.7-4.8c0.8-0.3-3.5,2.5-3.5,2.5
	l-0.3,4.5c0,0-3.3,0.7-5,0.5c-1.7-0.2-7,7.8-7,8.7c0,0.8-14.2-0.5-16.5-2.2c0,0-4.7-0.7-5.2,0.3c0,0-1-8.8,5.8-7.8
	c0,0,9.8,2.2,11.2,0.8l1.7-1.8c0,0-11.5,1.8-10.5-3.3c0,0,3.8-8.2,3.3-9.2c-0.5-1-11.5-1.5-10.7-13c0,0-7.2-0.5-9.2,7
	c0,0-3.5,7.3-8.3,5c-4.8-2.3,0-0.7,0-0.7s3.2,0.2,3-2.2c0,0-4.8-2.3-8.3,3.5c0,0-7.8,5.5-15.5,3.2c-7.7-2.4,0-0.5,0-0.5
	s3.3,0.5,4-1.8c0,0-9.7-2.4-13.2,0.9c0,0-3.3,2.5-8.5,1.5c0,0,5-0.7,5-3c0-2.3-10.7,8.7-29.1-4.7c0,0-4.5-3.8-5-6.2
	c-0.5-2.3,0-0.8,0-0.8s5.5,3,7,1.8c0,0,55.6-3.7,64.3-14.7C274.5,373,289.5,374.7,290.3,370.5z"/>
<path fill="#010101" d="M544.4,393.5c0,0,4.9-12.2,23.9-9.3c0,0,10.2,5.5,12.7,9c0.1,0.1,0.1,0.2,0.2,0.2c0,0,2.9,0.3,2.9-1.6
	c0,0-4.6-2.8,0.7-3.7c0,0,5.5-0.5,5.8-1.6c0,0-0.5-5.9,3.8-2.7c0,0,3.5,3.2,3.8,2.8c0,0,6.4,3.3,6.8,3.2c0,0,0.8,2.4,0.6,2.8
	l6.3,2.7c0,0,0.4,2-2.1,3.2c0,0,1.1,2.9-1.6,2.7c0,0-5.5-0.1-6.2,0.5c0,0-10.2,5.2-12.2,7.4c0,0-2.4,2.5-6.8,4.7c0,0-9.8,6.3-10,6.9
	c0,0-2.1,1.5,7.1,0.5c0,0,4.5-1.5,4.7,0.3c0,0,1.4,3.3-2.7,3c0,0-10.9,1.3-12.5,0c0,0-7.1,6.1-6.8,6.9c0.3,0.8-2,4.5-4.2,5.4
	c0,0-5.4,0.9-1.8-5.4c0,0,8.8-11.9,9.4-12.1c0.6-0.2-0.6,0.2-0.6,0.2s0.8-4.4-0.9-4.8c0,0-1.9-2.5-1.5-2.6s-1.9,1.4-1.9,1.4
	l-0.2,2.5c0,0-1.8,0.4-2.7,0.3c-0.9-0.1-3.8,4.3-3.8,4.7c0,0.5-7.7-0.3-9-1.2c0,0-2.5-0.4-2.8,0.2c0,0-0.5-4.8,3.2-4.3
	c0,0,5.4,1.2,6.1,0.5l0.9-1c0,0-6.3,1-5.7-1.8c0,0,2.1-4.5,1.8-5c-0.3-0.5-6.3-0.8-5.8-7.1c0,0-3.9-0.3-5,3.8c0,0-1.9,4-4.5,2.7
	s0-0.4,0-0.4s1.7,0.1,1.6-1.2c0,0-2.6-1.3-4.5,1.9c0,0-4.3,3-8.4,1.7c-4.2-1.3,0-0.3,0-0.3s1.8,0.3,2.2-1c0,0-5.3-1.3-7.2,0.5
	c0,0-1.8,1.4-4.6,0.8c0,0,2.7-0.4,2.7-1.6s-5.8,4.7-15.9-2.5c0,0-2.5-2.1-2.7-3.4s0-0.5,0-0.5s3,1.6,3.8,1c0,0,30.3-2,35.1-8
	C535.8,394.9,543.9,395.8,544.4,393.5z"/>
</svg>
